<?xml version="1.0" standalone="no"?>
<!DOCTYPE svg PUBLIC "-//W3C//DTD SVG 20010904//EN"
 "http://www.w3.org/TR/2001/REC-SVG-20010904/DTD/svg10.dtd">
<svg version="1.0" xmlns="http://www.w3.org/2000/svg"
 width="100.000000pt" height="141.000000pt" viewBox="0 0 100.000000 141.000000"
 preserveAspectRatio="xMidYMid meet">

<g transform="translate(0.000000,141.000000) scale(0.100000,-0.100000)"
fill="#000000" stroke="none">
<path d="M498 1339 c-27 -20 -28 -24 -28 -111 l0 -91 21 27 c17 21 24 24 35
15 12 -10 14 4 14 85 0 53 -3 96 -7 96 -5 0 -20 -10 -35 -21z"/>
<path d="M302 1204 c-41 -28 -18 -95 31 -93 21 1 21 2 2 6 -39 10 -47 51 -15
83 24 24 14 26 -18 4z"/>
<path d="M652 1208 c-19 -19 -14 -37 13 -50 29 -13 33 -34 8 -41 -15 -4 -15
-5 -2 -6 22 -1 41 22 34 41 -4 9 -18 21 -32 27 -21 9 -23 14 -13 26 15 18 9
20 -8 3z"/>
<path d="M491 1075 c-13 -22 -25 -58 -27 -80 -2 -22 -1 -33 2 -25 4 8 13 30
22 48 l15 34 13 -24 c7 -12 13 -36 14 -52 0 -45 11 -24 12 23 0 23 -4 47 -10
54 -5 6 -12 23 -14 37 -3 24 -4 23 -27 -15z"/>
<path d="M132 1058 c15 -22 23 -23 162 -26 l146 -3 0 26 0 25 -161 0 -161 0
14 -22z"/>
<path d="M560 1055 l0 -25 143 0 c127 0 146 2 160 18 10 10 17 22 17 25 0 4
-72 7 -160 7 l-160 0 0 -25z"/>
<path d="M307 1003 c-15 -14 -6 -41 18 -57 33 -22 32 -40 -1 -33 -16 3 -22 1
-16 -5 16 -16 47 -4 50 19 2 14 -5 27 -22 39 -30 19 -33 31 -8 37 14 4 14 5 1
6 -9 0 -19 -2 -22 -6z"/>
<path d="M643 983 c-4 -11 3 -23 20 -37 15 -12 27 -28 27 -36 1 -11 4 -9 12 4
9 16 6 23 -18 43 -16 13 -28 28 -26 33 4 17 -8 11 -15 -7z"/>
<path d="M827 993 c-12 -12 -7 -30 8 -30 17 0 18 6 7 25 -5 7 -11 9 -15 5z"/>
<path d="M160 975 c0 -8 8 -15 18 -14 10 0 12 3 4 6 -6 2 -10 9 -6 14 3 5 0 9
-5 9 -6 0 -11 -7 -11 -15z"/>
<path d="M865 958 c-11 -18 -20 -35 -20 -38 0 -3 -4 -12 -10 -20 -8 -13 -7
-13 9 -1 21 17 48 69 44 82 -2 5 -12 -5 -23 -23z"/>
<path d="M110 977 c0 -15 29 -64 46 -78 16 -12 17 -12 9 1 -5 8 -10 21 -12 29
-2 15 -43 60 -43 48z"/>
<path d="M792 940 c0 -14 2 -19 5 -12 2 6 2 18 0 25 -3 6 -5 1 -5 -13z"/>
<path d="M191 924 c0 -11 3 -14 6 -6 3 7 2 16 -1 19 -3 4 -6 -2 -5 -13z"/>
<path d="M640 910 c0 -5 5 -10 11 -10 5 0 7 5 4 10 -3 6 -8 10 -11 10 -2 0 -4
-4 -4 -10z"/>
<path d="M460 895 c16 -19 51 -19 76 0 17 13 15 14 -35 15 -46 0 -52 -2 -41
-15z"/>
<path d="M780 905 c0 -5 4 -16 9 -23 6 -11 10 -10 15 4 3 9 4 19 1 22 -3 3 -5
-1 -5 -9 0 -11 -2 -11 -10 1 -5 8 -10 11 -10 5z"/>
<path d="M216 878 c-3 -12 -3 -24 -1 -27 3 -2 5 1 5 7 0 6 7 9 15 6 19 -8 19
3 1 21 -12 12 -15 11 -20 -7z"/>
<path d="M760 886 c0 -9 5 -16 10 -16 6 0 10 4 10 9 0 6 -4 13 -10 16 -5 3
-10 -1 -10 -9z"/>
<path d="M859 863 c-15 -17 -21 -69 -7 -55 9 9 29 72 24 72 -2 0 -10 -7 -17
-17z"/>
<path d="M130 852 c0 -25 16 -37 23 -18 3 8 -1 20 -9 26 -11 10 -14 9 -14 -8z"/>
<path d="M460 860 c0 -5 4 -10 9 -10 4 0 11 -41 13 -90 5 -86 11 -110 24 -98
3 3 8 47 11 97 3 50 10 91 14 91 5 0 9 5 9 10 0 6 -18 10 -40 10 -22 0 -40 -4
-40 -10z"/>
<path d="M774 852 c4 -7 2 -12 -3 -12 -6 0 -11 -4 -11 -8 0 -5 7 -9 15 -9 18
0 20 23 3 33 -7 4 -8 3 -4 -4z"/>
<path d="M217 821 c-3 -15 0 -17 17 -13 11 3 15 7 8 10 -7 2 -10 8 -6 13 3 5
1 9 -4 9 -5 0 -12 -8 -15 -19z"/>
<path d="M758 787 c4 -14 7 -16 13 -5 12 19 11 25 -5 25 -8 0 -11 -8 -8 -20z"/>
<path d="M130 782 c0 -10 9 -27 20 -37 18 -17 20 -17 14 -2 -7 20 6 23 24 5 7
-7 12 -9 12 -6 0 3 -16 18 -35 32 -32 24 -35 25 -35 8z"/>
<path d="M237 773 c3 -7 6 -13 8 -13 2 0 5 6 8 13 3 8 -1 14 -8 14 -7 0 -11
-6 -8 -14z"/>
<path d="M844 778 c-5 -7 -9 -21 -9 -30 -2 -17 0 -17 17 -1 19 17 24 43 9 43
-6 0 -13 -6 -17 -12z"/>
<path d="M740 752 c0 -7 6 -12 13 -12 8 0 7 -4 -3 -10 -12 -7 -12 -10 -1 -10
7 0 11 -6 7 -15 -8 -21 1 -19 13 4 8 14 6 23 -9 36 -12 10 -20 13 -20 7z"/>
<path d="M260 743 c0 -5 5 -15 10 -23 7 -12 9 -10 7 8 -1 19 -17 33 -17 15z"/>
<path d="M130 710 c0 -11 50 -50 64 -50 6 0 2 6 -9 12 -18 11 -18 12 -1 18 14
5 10 8 -18 17 -20 6 -36 7 -36 3z"/>
<path d="M693 704 c-8 -22 13 -42 29 -26 9 9 7 13 -6 18 -14 5 -15 9 -4 15 10
7 10 9 0 9 -7 0 -15 -7 -19 -16z"/>
<path d="M833 706 c-39 -14 -53 -26 -21 -20 22 5 22 5 4 -10 -11 -9 -15 -16
-8 -16 14 0 69 47 62 53 -3 2 -19 -1 -37 -7z"/>
<path d="M249 684 c10 -21 44 -53 116 -108 43 -33 68 -85 59 -123 -5 -18 -4
-24 5 -19 19 12 12 71 -13 108 -16 24 -21 40 -15 49 8 12 11 12 19 -1 9 -12
10 -10 8 10 -2 14 -9 25 -18 25 -8 0 -18 8 -22 18 -10 23 -33 17 -33 -9 0 -12
6 -18 18 -18 10 1 17 -5 17 -17 0 -17 -5 -16 -50 12 -27 17 -61 45 -76 62 -14
18 -21 22 -15 11z m131 -49 c0 -8 -4 -15 -10 -15 -5 0 -10 7 -10 15 0 8 5 15
10 15 6 0 10 -7 10 -15z"/>
<path d="M300 681 c0 -16 6 -20 25 -19 17 2 25 8 25 20 0 10 -4 18 -10 18 -5
0 -10 -5 -10 -11 0 -8 -5 -8 -15 1 -13 10 -15 9 -15 -9z"/>
<path d="M660 661 c0 -14 6 -21 18 -20 10 0 12 3 4 6 -6 2 -10 9 -7 13 3 5 1
11 -5 15 -5 3 -10 -3 -10 -14z"/>
<path d="M720 655 c-12 -13 -46 -39 -75 -56 -33 -20 -59 -44 -69 -66 -18 -37
-21 -89 -7 -98 6 -3 10 12 9 35 -1 50 18 79 85 128 49 37 96 82 85 82 -2 0
-15 -11 -28 -25z"/>
<path d="M130 635 c0 -27 42 -45 100 -43 l55 2 -50 3 c-71 6 -82 23 -15 24 51
1 52 2 20 9 -81 18 -110 19 -110 5z"/>
<path d="M632 630 c0 -14 2 -19 5 -12 2 6 2 18 0 25 -3 6 -5 1 -5 -13z"/>
<path d="M805 638 c-83 -11 -90 -16 -21 -17 72 -1 65 -14 -12 -22 l-57 -6 56
-2 c42 -1 63 4 79 17 36 29 21 38 -45 30z"/>
<path d="M490 578 c0 -45 3 -59 10 -48 13 20 13 110 0 110 -6 0 -10 -27 -10
-62z"/>
<path d="M602 610 c0 -14 2 -19 5 -12 2 6 2 18 0 25 -3 6 -5 1 -5 -13z"/>
<path d="M555 574 c-3 -20 -4 -39 -1 -42 3 -3 6 4 6 16 0 11 8 26 18 31 13 8
14 10 2 11 -13 0 -13 1 0 10 13 8 13 10 -1 10 -11 0 -19 -12 -24 -36z"/>
<path d="M255 570 c-3 -5 -27 -16 -53 -24 l-47 -14 36 -15 c39 -17 67 -14 117
16 47 28 34 31 -27 8 -60 -24 -67 -14 -13 17 30 18 33 22 15 22 -12 0 -25 -4
-28 -10z"/>
<path d="M448 573 c7 -3 16 -2 19 1 4 3 -2 6 -13 5 -11 0 -14 -3 -6 -6z"/>
<path d="M733 558 c53 -31 46 -41 -14 -17 -71 27 -75 15 -6 -16 54 -25 57 -25
94 -9 l38 16 -34 10 c-19 5 -44 16 -55 24 -11 8 -30 14 -41 14 -15 0 -11 -6
18 -22z"/>
<path d="M532 550 c0 -14 2 -19 5 -12 2 6 2 18 0 25 -3 6 -5 1 -5 -13z"/>
<path d="M448 533 c7 -3 16 -2 19 1 4 3 -2 6 -13 5 -11 0 -14 -3 -6 -6z"/>
<path d="M293 496 c-15 -12 -39 -29 -52 -36 -19 -9 -21 -14 -10 -21 30 -19 74
-9 118 26 50 40 33 48 -19 10 -50 -37 -61 -30 -18 10 42 39 26 48 -19 11z"/>
<path d="M689 488 c50 -39 36 -51 -18 -14 -52 36 -72 33 -26 -4 45 -36 75 -45
113 -35 25 7 26 8 8 19 -10 6 -34 23 -53 39 -20 15 -43 27 -51 27 -9 0 3 -15
27 -32z"/>
<path d="M461 460 c0 -14 3 -19 6 -11 5 11 7 11 14 0 7 -12 9 -11 9 1 0 13 1
13 10 0 8 -13 10 -12 10 4 0 11 -5 16 -14 13 -7 -3 -19 0 -25 6 -8 8 -11 5
-10 -13z"/>
<path d="M520 455 c0 -8 2 -15 4 -15 2 0 6 7 10 15 3 8 1 15 -4 15 -6 0 -10
-7 -10 -15z"/>
<path d="M444 390 c1 -17 36 -27 36 -11 0 6 -6 8 -14 5 -8 -3 -16 0 -19 8 -3
9 -4 8 -3 -2z"/>
<path d="M491 398 c-1 -22 18 -33 32 -19 8 8 8 14 -2 24 -10 10 -11 9 -6 -5 4
-10 3 -18 -3 -18 -6 0 -13 8 -15 18 -4 15 -5 15 -6 0z"/>
<path d="M560 398 c0 -9 -6 -19 -12 -21 -10 -4 -10 -6 0 -6 14 -1 28 26 18 36
-3 4 -6 -1 -6 -9z"/>
<path d="M483 321 c1 -12 7 -21 14 -21 17 0 16 15 -1 30 -12 9 -15 8 -13 -9z"/>
<path d="M454 265 c-4 -9 -4 -19 0 -22 3 -4 6 1 6 10 0 21 17 22 23 2 4 -12 5
-11 3 1 -2 23 -24 30 -32 9z"/>
<path d="M286 164 c-12 -31 33 -60 50 -33 4 8 -1 9 -16 4 -20 -6 -22 -4 -18
19 6 29 -6 36 -16 10z"/>
<path d="M357 173 c-13 -12 -7 -41 10 -47 9 -4 23 0 31 8 16 16 10 46 -9 46
-8 0 -8 -4 1 -15 9 -11 10 -19 2 -27 -15 -15 -35 1 -29 23 5 20 4 23 -6 12z"/>
<path d="M423 155 c2 -23 7 -30 22 -30 14 0 20 7 21 25 1 23 1 23 -3 2 -5 -29
-25 -24 -35 9 -6 22 -7 21 -5 -6z"/>
<path d="M490 148 c0 -36 4 -35 14 5 4 16 2 27 -4 27 -5 0 -10 -14 -10 -32z"/>
<path d="M531 167 c0 -10 -5 -15 -11 -12 -12 8 -13 -5 0 -25 13 -21 22 -7 17
27 -2 15 -5 20 -6 10z"/>
<path d="M570 150 c0 -39 6 -39 12 0 3 17 1 30 -4 30 -4 0 -8 -13 -8 -30z"/>
<path d="M611 148 c1 -18 3 -25 6 -15 5 20 23 23 24 5 0 -7 4 -4 8 7 11 25 5
35 -20 35 -15 0 -19 -7 -18 -32z"/>
<path d="M670 174 c1 -5 7 -20 15 -34 10 -18 14 -20 15 -8 0 9 2 22 3 30 2 7
2 9 -1 5 -2 -4 -10 -3 -18 4 -8 6 -14 8 -14 3z"/>
</g>
</svg>
